# xmcd
#
# Track frame offsets: 
#        150
#        50920
#        75494
#        105810
#        139950
#        171278
#        206583
#        248055
#
# Disc length: 3797 seconds
#
# Revision: 0
# Processed by: cddbd v1.5.2PL0 Copyright (c) Steve Scherf et al.
# Submitted via: ExactAudioCopy v0.95b4
#
DISCID=670ed308
DTITLE=Eric Clapton - Best Birthday - CD2
DYEAR=1998
DGENRE=Blues
TTITLE0=Old Love
TTITLE1=Sick And Tired
TTITLE2=Have You Ever Loved A Woman
TTITLE3=I Shot The Sheriff
TTITLE4=Wonderful Tonight
TTITLE5=Tearing Us Apart
TTITLE6=Sunshine Of Your Love
TTITLE7=Crossroads
EXTD=
EXTT0=
EXTT1=
EXTT2=
EXTT3=
EXTT4=
EXTT5=
EXTT6=
EXTT7=
PLAYORDER=
